<svg width="444" height="462" xmlns="http://www.w3.org/2000/svg" xmlns:xlink="http://www.w3.org/1999/xlink">
	<defs>
		<linearGradient x1="54.7%" y1="9.2%" x2="50%" y2="82.8%" id="a">
			<stop stop-color="#FBDA77" offset="0%"/>
			<stop stop-color="#E6AE42" offset="100%"/>
		</linearGradient>
		<path d="M113.1 298.1c65.3 0 118.2-55.8 118.2-124.7S178.3 48.7 113 48.7.2 110 .2 178.9c0 69 47.7 119.2 113 119.2z" id="b"/>
		<linearGradient x1="71.2%" y1="16.5%" x2="50%" y2="100%" id="c">
			<stop stop-color="#FBDD81" offset="0%"/>
			<stop stop-color="#F1B542" offset="97.7%"/>
		</linearGradient>
	</defs>
	<g transform="rotate(-45 217.5 100)" fill="none" fill-rule="evenodd">
		<path d="M44.6 6.6C64-12.7 80.1 14.7 93.4 88.7l-81.2 37.8C14.6 65.8 25.4 25.9 44.6 6.6zM188.2 10C205 31.9 215.6 70.6 220 126l-86.7-40.4c19.8-72.5 38-97.8 54.9-75.8z" fill="url(#a)"/>
		<path d="M47.2 24.2c12.4-18.6 23.5 0 33.1 55.8l-55.1 25.6c2.3-35.7 9.7-62.8 22-81.4zm136.2-1.4c9.1 15 17.4 43.8 24.8 86.1l-63-29.3c16.4-53 29.1-72 38.2-56.8zM.3 184.2l228.1 8.2c1.5 78.5-9.1 133.7-31.8 165.3-34 47.4-149.5 47-172.4 0C8.9 326.4.9 268.6.3 184.2z" fill="#FFF"/>
		<mask id="d" fill="#fff">
			<use xlink:href="#b"/>
		</mask>
		<use fill="#FFF" xlink:href="#b"/>
		<path d="M37.6 185.6c-32 0-57.8-34.3-57.8-76.6S40-16.5 72-16.5c31.9 0 32.2 73.7 23.4 125.5-8.8 51.8-25.9 76.6-57.8 76.6zm151.7 2.4c-32 0-45.7-26.6-57.8-76.5-12.1-50-22-121 9.9-121 32 0 105.7 78.7 105.7 121 0 42.2-25.9 76.5-57.8 76.5z" fill="url(#c)" mask="url(#d)"/>
		<circle fill="#000" mask="url(#d)" cx="76.9" cy="133.3" r="7.6"/>
		<circle fill="#000" mask="url(#d)" cx="151.9" cy="133.3" r="7.6"/>
		<path d="M124.7 155.5c-3.5 3.2-7.2 5-11.2 5.2-4.2.2-8.3-2-12.5-6.5-1-1-1.4-2.1-1.5-3.4v-.7c-.1-1.5.9-3 2.4-3.4a43.5 43.5 0 0 1 20.9-.6c2 .4 3.4 2.1 3.5 4.2v.9c.2 1.6-.5 3.1-1.6 4.3z" fill="#000" mask="url(#d)"/>
		<path d="M113.7 189c6.2 0 11.2-7 11.2-11.1 0-4.2-5-3.3-11.2-3.3-6.1 0-11.1-1-11.1 3.3 0 4.2 5 11.1 11.1 11.1z" fill="#F7796D" mask="url(#d)"/>
	</g>
</svg>
