<svg width="467" height="385" xmlns="http://www.w3.org/2000/svg" xmlns:xlink="http://www.w3.org/1999/xlink">
	<defs>
		<path d="M35.9 1.5v6h-4.4v-6h4.4zm0 19.9l-.4 8.3h-4.4l.3-8.4H36zm0-9.7v5.7l-4.4-.1v-5.7H36zm1.5-8.8L50 2.2l-.1 17.3-3 .2.1-13.8-6.2.2-.1 13.5h-3l-.3-16.7zm4.5 4.5h3.7l.1 12.6 5.7 5.7-3.7 2.7-3.3-4.4-4.4 5.4-3.2-2.7 5.1-6.3v-13zM53 25.9l3.4-.1L56 1.3h4.5l.2 28.6H53v-4zM51.3 4.6l3.6.1v17.7l-3.5.1V4.6zM64 12.1l27.9-.7-.3 5.2-27.3-.5-.3-4zM99.9 1.5v6h-4.4v-6h4.4zm0 19.9l-.4 8.3h-4.4l.3-8.4h4.5zm0-9.7v5.7l-4.4-.1v-5.7h4.4zm1.5-8.8l12.6-.7-.1 17.3-3 .2.1-13.8-6.2.2-.1 13.5h-3l-.3-16.7zm4.5 4.5h3.7l.1 12.6 5.7 5.7-3.7 2.7-3.3-4.4-4.4 5.4-3.2-2.7 5.1-6.3v-13zM117 25.9l3.4-.1-.5-24.5h4.5l.2 28.6H117v-4zm-1.7-21.3l3.6.1v17.7l-3.5.1V4.6zm16.5-3.5l5.5.1c-.5 4.6-2 7.4-3.6 9h2.5V30h-5.3l.2-18c-2 .9-3.8.6-3.8.6l-.1-5.2 4 .1.6-6.4zm19 11.3l.5-5h-7.7l-1.5 5-4.4-.4 2-10.8 5.5.4-.8 2.8 12.2-.3-1 8.6-4.8-.3zm-6 13.3l-.6-14.3h5.6l.1 18-6.6.4-.3-4 1.8-.1zm-5.8-10l4 .5c-.6 11.7-2.2 11.6-5.6 11.1l-.1-4.2h1.3l.4-7.4zm12 .3l4-.2.7 6.8h1.1l-.1 3.7H153c-1.7-2-2-10.3-2-10.3zm19.2-11.6l16.8-.6-.2 4.2-17-.3-.6 4.2 17-.4s.3 16.4-1.2 18.1h-10.4v-3.2l6.8-.3V16H164L165.3.8l5.4-.2-.5 3.7zm-9.5 15l18.5.6v3.3l-18.3.3-.2-4.2zM201 4.8V1.6l9.9-.5s0 25.8-1.4 27.6H205l.2-3.1 1.3-.2v-5H205c-.6 9-1.8 10.5-5.6 9.7l.3-3.8 1.5.2.4-6h-1.3l.4-3.5 1 .1.3-4h-1.2l-.1-3.2h1.4l.3-5H201zm15.2 8.9l1.4-9.2-2.2-.2v26.1l-3.9.1.4-29 9.1-.1v3.3l-1.4 8.4 1.4 7-1.4 6.2-3.5-1 1.5-5-1.4-6.6zm-20.4 10.9l-4.6-.2v-19l8.7-.2v15.4c-.1 2.2-1.3 4-4.1 4zm.5-16.1H195l.2 12.7h1l.2-12.7zm9.2 4.4l-.3 4.5h1.4l.2-4.6-1.3.1zm1.3-3l.2-5.1h-1.1l-.3 5.1h1.2zm20 8.6L226.6 2 250 2v11.4c-.1 3-1 5-5.2 5h-18zm18-12.7l-13.2.4.4 8.2 12.4-.6.4-8zM229.4 20l5 .7c-1.5 8.8-4.4 9.5-8.7 9.1l-.1-4.3h2.4l1.4-5.5zm12.5 1.2l5.3-.8 1.4 5.2h2.2l-.2 4.1H245c-1.2-1.3-3.1-8.5-3.1-8.5zm28 4.6V9l14.5-.4-.6 21.1-7.2.1v-3l2.7-.1V24h-4.7c-1 6.8-3.7 7-6.6 5.9l-.2-4.3h2zm-14 2.2V10l11.8.2v10.9c0 5.5-1.5 7-5.3 7L256 28zm17.6-20V6h-7.6v2.2h-5V6h-5.5l.3-3.1h5.1V.5h5.4l-.1 2.1h7.4V.5h5.1v2l6.2-.2v3.7h-6V8h-5.3zm1.4 13l4.3-.2v-3l-4.2.1V21zm-11.6 3.6v-4.2h-2.8l-.2 4 3 .2zm16-12.7l-4.3.4v2.5l4.2-.3V12zm-18.6 1.4l-.1 3.7 2.6-.1-.1-3.8-2.4.2zm38.1 6.8l4.4-.6V15h-4.5c-3 15.1-4.8 14.4-10.6 14.3v-4.7l3.1.1 2.2-9.9-5-.1-.4-3.4h6.2l.8-3.8 5 .3-.6 3.4H316l-.2 4.1-7.5-.2v3.8l5.6-.8.7 4.2-6.3.7v3l6.9-.2-.4 4.1-11.6-.1v-6.3l-3.6.3-.8-3.6zm.7-19.1h5.1v1.4H316l-.2 5.6-5.1.1V5.3l-17.6.3v2.6l-5.3-.1.4-5.8h11.2V1zm5.3 9l.1-2.5 4.6.1V10h-4.7zm15 15.6l2-.1V15H320v-2.4l27.5-.2v2.8h-13.3V25l1-.1v2.6h-1v2.9h-4.8v-2.6l-9.3.6-.3-2.8zm4.3-14.1l-.1-10h20.5c.3 11.2-2.8 9.8-9 10H324zM336 22.3l2.8-2.4 2.4 1.9L343 19l-7.4.5v-3h11.3l.3 3.6c-.8 1.7-1.6 3.1-2.4 4.3l3.6 2.7-3.1 3.2-3-2.6c-2.4 2.8-4.5 2.8-6.5 2v-3.5l2.3.2 1-1.5-3.1-2.7zm3.8-13.5V7.5l-10.8.2V9l10.8-.3zm-.3-5l-10.3.2-.1 1.3 10.5-.3V3.7zm-13 15.5V21h3v-1.7h-3zm0 4.3l-.1 1.7 3-.1.1-1.6h-3zm0-8.4v1.4h3.1v-1.4h-3zm53-7v3.3c.1 3.1-3.2 4.3-5.8 4.3l-.9.4 1.3 1.8 4.5-2.4 1.9 2.7-2.2 1.1 2 9.2-4.2.7-1.2-8-.6.2c0 3.2 0 6.5-.2 8l-6 .1v-2.4h1.4v-1l-7.2 3-1.5-3 8.6-3.3v-1.1l-6.8 2.7-1.4-2.9 7.8-3.1-.5-.7-5.5 2-1.4-2.7 3.5-1.3h-2.4l-.3-7.6h9.3l1-2.6h-5.5l-1 2-4.5-.5 1.8-6.2 5.7.6-.5 1.2 8.4-.4.7 3.3-1 2.6h2.7zM360.9 1c-.4 4.6-1.9 7.3-3.5 9h2.5v19.7h-5.4l.2-17.9c-2 .8-3.7.6-3.7.6l-.1-5.2h3.9l.6-6.4 5.5.2zm13.8 9.8h-1.6V13h1.6v-2.1zm-7.4 2h1.6v-2h-1.7v2z" id="b"/>
		<filter x="-.6%" y="-6.7%" width="102%" height="126.7%" filterUnits="objectBoundingBox" id="a">
			<feOffset dx="3" dy="4" in="SourceAlpha" result="shadowOffsetOuter1"/>
			<feColorMatrix values="0 0 0 0 0.0801399219 0 0 0 0 0.114487794 0 0 0 0 0.403991284 0 0 0 0.588853034 0" in="shadowOffsetOuter1"/>
		</filter>
		<filter x="-2%" y="-2.4%" width="107.2%" height="109.8%" filterUnits="objectBoundingBox" id="c">
			<feOffset dx="7" dy="8" in="SourceAlpha" result="shadowOffsetOuter1"/>
			<feGaussianBlur stdDeviation="4" in="shadowOffsetOuter1" result="shadowBlurOuter1"/>
			<feColorMatrix values="0 0 0 0 0 0 0 0 0 0 0 0 0 0 0 0 0 0 0.148324275 0" in="shadowBlurOuter1" result="shadowMatrixOuter1"/>
			<feMerge>
				<feMergeNode in="shadowMatrixOuter1"/>
				<feMergeNode in="SourceGraphic"/>
			</feMerge>
		</filter>
		<linearGradient x1="-118.2%" y1="82.8%" x2="110.4%" y2="50%" id="d">
			<stop stop-color="#F7D465" offset="0%"/>
			<stop stop-color="#FFFCD2" offset="100%"/>
		</linearGradient>
	</defs>
	<g fill="none" fill-rule="evenodd">
		<path d="M44.5 356.5L62 380.4H27l17.5-24z" fill="#FE3EAD"/>
		<path d="M30.8 352l13.7 18.7H17.1L30.8 352z" fill="#FFA247"/>
		<path d="M406.3 357.3l16.7 22.9h-33.5l16.8-23z" fill="#FE3EAD"/>
		<path d="M419 350.8l14.5 19.8h-29l14.5-19.8z" fill="#FFA247"/>
		<g transform="translate(17 350)">
			<use fill="#000" filter="url(#a)" xlink:href="#b"/>
			<use fill="#FFF" xlink:href="#b"/>
		</g>
		<g>
			<g filter="url(#c)" transform="translate(7 -6)" fill="#2524A3">
				<path d="M240.6 118.6c-1.5 0-8-1-7.4-5.4.6-4.3 4-10 8.5-9.5 10 1 20.2 2.1 30.1 2.1 12.2 0 14-6.4 14.9-8.2 2.4-5.2 8.1-14.1 16.2-8.6 8.3 5.6-.7 11.6-2.4 17.8l33.7 4.7c-.5-6.7-10.6-11.9-2-18 4.2-2.8 8.2.2 10.8 3.8 3 4.3 9.5 8.7-.5 14.6 6.9 1 12 1.3 17 2.5 4.5 1.2 8.9 3.6 7.4 9.6-1.3 5.3-5.7 5.3-10 4.8-19.7-2.1-39.5-4-59-6.5-6.3-.9-10.2.4-13.9 6-11.5 17.3-24.3 35-35.4 51.3-2.8 4-6.4 5.4-11.7 3-5.3-2.4-4.4-8.8-1.4-13l34.6-49.2-29.5-1.8z"/>
				<path d="M292.1 42.5c4.8-6 5.9-2 11-3 5.1-.9 10.1-.9 12.6 4.7 2.5 5.6-1.2 8.7-9 13.5 10.2 1.4 33.7 2.8 43 4.4 5.1.8 10.4 1.9 15.2 3.8 6.8 2.6 12.7 7.5 12.2 15.4a34.2 34.2 0 0 1-11 23.3c-2.6 2.5-6.8 2.1-9.7-.4-2.6-2.4-.7-5.2.4-7.8 6.7-16.3 5.5-18.5-11.8-20.8a467 467 0 0 0-81.2-3c-7.2.2-8.7 2.8-7.2 8.8 2.4 9.2-3.3 9-9.6 10-8 1.4-7.4-3.5-7.5-8.5 0-7.5-.7-15-.2-22.3.5-7.1 6.4-10.5 10.8-6.2 6.9 6.8 14.1 4 21.4 4.3 6.8.2 21.5 0 29-.2-9.9-5.6-10.9-12.9-8.4-16zM312.7 150.7c9.4-.5 18-1.2 26.6-1.3 3.8 0 8.2.7 8.7 5.7.6 5.6-3.6 7.4-7.9 8.1-8.2 1.4-16.5 2-24.7 3.4-2.9.5-7.7-1.5-8 4.2-.3 5 2 9 6.5 11a44.9 44.9 0 0 0 19.5 2.7c3.1-.1 6.2-.7 9.3-.7 2.9 0 7.9-3.8 7.8 2.4 0 4.4 1.9 11-6.6 11.8-11.5 1-23 1.5-34.2-1.5-9.7-2.5-17.6-8.3-18.9-18.8-1-8.5-5.2-7.3-10.4-6.2-5.2 1.1-9.5 2.7-11-5.8-1.5-9.2 4.4-8 9.1-8.6 9-1 15.5-3.3 18-14.5 2.2-10.8 11.3-13.6 16.3-7 3.6 4.7 0 9.4-.1 15.1M284.4 38.4c-3 1.6-7.2-.5-9.5-4.7s-1.8-9 1-10.5c3-1.6 7.2.5 9.6 4.7 2.3 4.2 1.8 8.9-1.1 10.5zm12.3-9.4c-3.3.4-6.5-3-7.2-7.8-.7-4.8 1.5-9 4.7-9.4 3.3-.5 6.6 3 7.2 7.7.7 4.8-1.4 9-4.7 9.5zm13.2-.5c-3-1.5-3.8-6.2-1.7-10.5 2.1-4.3 6.3-6.6 9.3-5 3 1.4 3.8 6 1.7 10.4-2 4.3-6.3 6.6-9.3 5.1zm12.2 9.4c-1.8-2.1-.8-6 2.4-8.7 3.1-2.6 7.1-3 9-.8 1.8 2.2.7 6.1-2.4 8.7-3.1 2.7-7.1 3-9 .8zM142.3 99.1c0-7.2 1-11.4 10.8-10.5 9.2.9 18.5-4.5 28.3-4.7 17.9-.4 25.3 5.7 26.3 23.6 1.5 24.5-.2 49-.6 73.5-.1 5.6-3 8.9-8.4 8.6-5.6-.2-6.4-4.6-6.2-9.2a672 672 0 0 0 .7-67.1c-1-15.6-4.3-18.5-19.6-16.4-4.4.6-8.7 2.1-13.1 2.8-7 1-5 6.5-5 10.7-.3 6.3 4.4 3.8 7.3 4.2 4.1.6 8.3.9 12.3 1.6 3.2.6 6.3 1.8 6.2 5.9 0 4.6-3.7 5.8-7.1 6.2-4.1.5-8.4.6-12.5.2-5.4-.6-7.8 1-7 7 .7 4.3-1.8 10.6 6.8 9.4 4.7-.7 9.6-.7 14.4.9 3 1 5.1 2.5 5.2 5.8 0 3.9-2.6 5.5-6 6l-4.1.4c-15.8 1-15.8 1-15.5 17.6.1 3.6 0 7.1.4 10.7.5 5.3-2.8 5.3-6.5 5.6-4.1.4-6.5-.3-6.6-5.3-.4-12.1-.1-23.5-.8-35.5.4 0 .1-35 .3-52zM131.2 134.9c.6 9.6.3 19.1-1.7 28.5-3 14.1-12.8 22.4-25.6 22.3-13.8-.2-21.8-7.5-24.9-22.7-3.7-19-2.7-38.1.5-57 1.4-8 4.8-13.6 14.1-7.3 1.4 1 4 .2 6.1 0 22.2-2 28.8 3.4 30.9 25.5l.6 10.7zm-13 .4c-.7-5.2-1.2-10.6-2.4-15.7-1.7-7.5-7.3-8.2-14-7.7-8.6.8-9.7 5.8-10.3 13.5-.7 8.4 4 8.3 9.3 9 4.2.6 9.2 1 8.8 6.8-.4 5.3-5 6-9.5 6.4-3 .2-6.6-1.7-8.8 1.6-2.4 3.6 4 20 8.2 21.7 6.7 2.6 13.7-1.2 16.2-9.3a83.3 83.3 0 0 0 2.6-26.3zM113.4 83.8c-6.2 1-11.1 2-11.6-6.7-.3-4.5-3.6-4.3-7-4-5.5.8-11.1 1.5-16.7 1.8-3.6.2-8.3 2.8-8.8-4.8-.4-6.8 1.2-9.9 8.2-9.8 4.6.1 9.1-.7 13.6-1 3.7 0 6-.8 5.5-5.3-.5-4 1.5-7 5.6-7.7 4.2-.8 8.1 1 9.4 5 2 6 5.9 5.6 10.6 5l25.1-1.8c6.4-.4 12.6.5 15.8-8.2 2.3-6.2 10.4-5.2 12.4 1.7 1.5 5 4 4.5 7.4 4.3l17.8-.9c4.4-.1 9.1.4 9.7 5.8.6 5.7-4 6.8-8.4 7.2-5.2.5-10.5.8-15.7 1.1-7.3.5-16-1.7-15.9 10.7 0 4-6.7 4.4-8.6 4.5-2 .1-6.3-1.2-5.6-6.8.9-6.5-2.6-5.8-6.8-5.5-10 .7-20.2 1.1-31.3 1.7.3 6.4 4.1 12.3-4.7 13.7z"/>
				<g>
					<path d="M101.9 311.3c2.4 0 4.7.8 4.8 3.4.1 3.3-2.5 5.8-5.1 5.8-10.1 0-20.2 0-30.2.2-9.8.3-19.6 1-29.4 1.4-2 0-5 .1-5.5-4.3-.5-4.3 2.3-4.6 5.4-4.8l18.4-1c2.8 0 4.7-.8 4.4-4.1-.3-3.7-3-2.4-4.9-2.4-4.2-.1-8.3 0-12.5.2-2.3.1-3.8-2.2-3.6-5 0-2.3.4-4 3-4 5-.3 9.8-.4 14.7-.5 2.2 0 3.8-.2 3.8-3 0-2.4-1-3-3-3.2-1.2-.1-2.4-.5-3.6-.8-16.9-3.6-23.2-17.4-15-32.6 1.9-3.6 4-6 8.7-3.4 4 2.1 8.6.1 13 .2 8 .2 16.1-.8 24 1.4 6.8 1.9 12.5 4.8 13.2 12.8.8 9.3-2.3 15.6-9.9 19.5a29.9 29.9 0 0 1-14.1 3.2c-2 0-4 0-4 3s2.3 2.6 4.1 2.6l13.3.1c2.6.1 6-.3 6.2 3.5.1 4-3.4 5.4-6 5.5-4.6.1-9.3.2-14 0-2.8 0-3.8 1-3.7 3.8 0 3.3 2.1 2.6 4 2.6h11c4.1-.2 8.3-.2 12.5-.1zM50.7 266c.6 4 14.6 4.7 15.4-.1 1.3-8.2-4.4-5-7.6-5-3.1 0-8.6 0-7.8 5.1zm.3 10c0 3.7 6.2 5.1 10.4 6.3 1.7.4 4.2 1.7 4.1-1.7 0-2 1.8-5.2-2.5-5.4-3.8-.2-12-2.8-12 .8zm26.2 7c6.4 1.7 15.8-5 16-11.8 0-5.9-5.2-10.1-12.7-10.4-2.7-.1-4.2.4-4.2 3.4 0 2.2-.7 4.5 2.6 4.9 2.3.3 5.7 0 5.5 3.3-.1 4-3.6 3.2-6.2 3.1-3.3 0-2.4 2.4-2.6 4.1-.2 1.4-.6 2.7 1.6 3.3zM2.6 302.5c14.6 3.4 16.9 1.5 16.6-13.4l-.1-1.5c-.4-10.4-.4-10.4-10.5-8.1-3.3.7-5.7 1.8-6.6-3.4-.7-4.3-.3-6.4 4.2-6.8l2.2-.4c6.9-1 11.5-3.7 9-11.9-.2-.7-.1-1.5-.1-2.2-.5-10.6-.5-10.7-11-10.8-3.2-.1-5.7.1-5.4-4.5.1-4 1.1-6.4 5.3-5.8 9 1.4 10.7-3.1 9.4-10.8-.6-3.7-.7-8 4.5-8.4 5.3-.4 5.4 4.1 6 7.7.7 5.4-.2 11.6 8 12 1.7.2 2.6 2.2 2.5 4.2-.2 2.5-1.7 4-4 4.6-2.4.5-5.4.6-4.2 4.3 1.4 4.5-2.5 10.6 3.6 13.6 5.4 2.6 5 5.8 1.1 8.8-3 2.3-3.3 4.9-3.3 8.2 0 8.4 1.3 16.8-.6 25a15.4 15.4 0 0 1-24.1 9.7c-4.1-2.7-2-6.5-2.5-10M44 245.3c-2.2 0-4 .3-3.6-2.7.2-2.1-1.3-5.3 2.9-5.2 1.4 0 3 .2 4.2-.3 2-.6 6.5 2.2 5.3-2.9-.5-2.4 1.8-8.6-5.1-6.7-2.8.7-3.9-.7-3.8-3.6 0-2.6.7-4.1 3.6-4 3 0 5.8 0 8.7-.2 3.3 0 7.1 1.7 7.3-4.8 0-3.7 4.9-3.5 6.7-1 5.3 7 12.6 5.5 19.6 5.6 1.7 0 3.4 0 5 .2 2.4.2 4.5 1.1 4.2 3.9-.1 2.2-1.9 3.3-4 3.4h-4.3c-4.5.1-3.6 4-4 6.5-.9 4 2.5 2.3 4.2 2.5 2.4.3 4.9 0 7.2.3 2.4.3 5.1.9 5 4 0 3.2-2.6 3.8-5.1 3.8l-54 1.2zM79.2 227H65.7c-1.8 0-4.7-.6-4.5 2 .2 2.7.1 6.2 3.5 7.4 7.3 2.5 12.9-1 14.5-9.4z"/>
				</g>
				<g>
					<path d="M413.9 229.1c-.2 5.4 1.5 8.3 7.3 7.2 2.3-.4 5.5-.3 5.3 3.1-.1 3.3-3.4 2.7-5.7 2.9h-4.3c-2.4 0-3.4 1.3-3.4 3.6 0 3 2.2 1.9 3.7 2h2.2c2.4.2 6-.9 6 3 .1 3.2-3.1 3-5.5 3l-2.9.2c-2.6 0-5 .4-4.6 4 .3 3.7 2.9 2.3 4.8 2.3l19.5-.9c2.7 0 5.8 0 5.7 3.8 0 3.1-2.9 3.3-5.3 3.6l-7.3.6c3.7 4.5 8.5 5.8 12.4 8 4.2 2.4 2.7 4.4 1.2 7.4-1.8 3.6-3.6 3-6 1-3-2.2-6-4.1-9-6-1.7-1.2-4-2.6-3.6-4.3 2.5-9.6-4.4-5.6-7.8-5.5-12.8.2-25.5 1-38.3 1.3-3.8.1-5.8 1.5-6.3 5.3 7.7 4.5 15.6 1.7 23.4.4 6-1 12-1.1 18-.7 5.1.3 9.6 2.3 11.6 7.3a19.6 19.6 0 0 1-1 16.9c-1.4 2.5-3.9 3-6.3 2.2-3-1-2.7-3.3-2.4-6 1.7-12 0-14-11.9-12.9-4.5.5-9 1.7-13.5 2.1-7.7.8-13.4 3.1-11.7 12.8.9 5-2.9 3.7-5.6 4-3.3.3-4.1-1.2-3.9-4.3l1.7-20.6c-5.3 4.8-9.7 8.3-13.5 12.5-3.1 3.3-4.7.9-7-.8-3.4-2.4-1.3-4 .5-5.6l11.5-11c-1.4-2.1-3.5-.8-5.2-1-2.5-.4-5.8 1.3-5.8-3.9.1-5.4 3.8-3.2 6.1-3.4 5.8-.3 11.6-.3 17.3-.3 2.3 0 4.3.1 4.3-3.3 0-3.2-1.9-3.5-4.3-3.3H370c-2.5.3-3.4-.8-3.3-3.3 0-2.2 1-2.6 3-3.1 2.6-.7 8 2.9 7.6-2.7-.5-6-5.8-1.5-8.8-2-2.1-.5-4.2.2-4.3-3.2 0-3.2 1.8-3.1 4-3.7 3.2-.9 9.5 2.6 8.5-4-.7-4.3-6-1.4-9-1-9.6 1.2-9.7 1.4-8.2 11.6.4 3.3-.2 4.9-3.8 5.3-3 .3-5 .8-5.4-3.3-.5-5.3-1.6-10.6-2-15.9-.5-4.3 1.2-5.8 6-5 11 1.8 21.8-2.5 32.8-2.6 1.8 0 1.2-1.5 1.5-2.6 1.7-5.8 4.8-7 9.2-2.6 3.5 3.5 7 4 11.6 4 8.8-.2 17.8-1.1 26.5 1.4 4.4 1.2 8.3 3.4 8.9 8.4.7 5.8-1.8 11-5.6 15.2-1.5 1.6-4 1.9-6 .7-2.2-1.2-1.4-3.2-.8-5.1 3.3-10 1.8-12.3-8.5-13.1-3.3-.3-6.7 0-10 0zm-29.3 1.7c1.8 7.3-.5 5.9 15 5.8 5 0 6.3-2.4 6.3-7.2l-21.3 1.4zm11.1 11.7c-2.7 2.2-9-2.2-8.6 4.2.5 5.5 5.9 2 8.9 2 2.7.2 8 1.9 7.6-3.5-.4-5.5-5.4-1-7.9-2.7zm-1 19.2c2.6-.4 5.5-.1 7.7-1.2 1.4-.7 1.3-3.5-.1-5a37 37 0 0 0-14.7.8c-.3 1.6-1 4 .8 4.7 1.9.8 4.2.5 6.2.7z"/>
					<path d="M403.2 292c-.4 2.4-1.7 4.4-3.5 6.1-6.6 6.2-13.4 12.1-19.8 18.6-4 4.1-5.7-.3-8-2-3.8-2.5-.4-4 1-5.5 7-7.2 13.8-14.7 22.2-20.2 4.2-2.7 7.9-1.2 8.1 3M425.5 316.8c3.4 1.6 4.7 3.2 2.5 7-2.2 3.6-4 2.5-6.8.9-5.2-2.8-15.5-6.3-20.7-9-2.3-1.2-4-3.5-2.6-5.9 1.3-2.5 4-3.1 7-2 5.2 2.6 15.3 6.4 20.6 9z"/>
				</g>
				<g>
					<path d="M173.6 231.9c4-4.7 7.7-9.7 12.8-13.1 3.7-2.5 7.3-2.9 7.7 2.9.2 3 2 4.2 3.9 5.7 6 4.8 12.3 9.6 18.3 14.6 2.8 2.3 6.3 7.3 3.2 9.8-3.2 2.5-7.2 1-8.3 0a811 811 0 0 1-19.7-16.5c-3-2.6-5-2.6-7.7.6-4.5 5.8-9.6 11.1-14.1 17-3.9 4.7-6.8 11.7-14.3 1l-2.2 49.8c-.1 3.5-.4 7-.6 10.4-.3 3.9-2.5 5.7-6.3 5.3-4.1-.3-4.1-3.6-4-6.6l1.2-22.8c-.9-.4-10.3-2.8-12.2 0-2.5 3.7-.5 9-.6 13.7 0 3.2 0 6.4.2 9.6.3 3.8-.3 5.7-5 5.8-4.7 0-5.4-1.7-5.5-6-.2-28.5-.8-57.1-1.2-85.7-.1-7.7 1.3-9 8.4-6.5 3 1 5.2-.2 7.7-.6 12.8-2 18.4 2.1 19.5 15.2.5 5.7.6 10.8.6 18.8a4839 4839 0 0 1 18.2-22.4zM139.2 251c.6 0 2.7.5 3.5-1.3 1.6-3.2 2-10 1.7-13.3-.3-4.2-2-7.4-7.4-6.6-4.8.8-7.8 1.6-7.6 8 .3 7.2.5 13.2 9.8 13.2zm5.4 11.2c0-3-3.6-2.2-4.9-2.5-10.2-2.2-10.4 4-9.6 11.3.2 1.2.2 2.5 0 3.7-.1 2.5 1.1 3.4 3.3 3.9 3.7.8 6.3.8 11.2 0v-16.4zM161.3 312.5c0-3.4 2.4-5 5.7-5.2 7.2-.2 14.4-1.1 21.6-1.2 4.5-.1 6.7-1.2 7.7-6.3 1.8-8.7 4.5-17.3 7.2-26 1.2-3.8 3.5-7.6 8.3-5.6 4.7 2 2.6 6 1.6 9.4-2.2 7.2-4.3 14.5-6.6 21.6-1.3 4-1.3 6.4 4 6.1 2.5-.1 5.7.2 6.7 3.2 2 5.6-1.8 6.9-6.1 7.1-13.2.7-26.5.8-39 2.4-4.6-.6-11 0-11-5.5z"/>
					<path d="M192.4 252.8c3.1.2 6.6.1 10 .7 2.5.4 4.7 1.9 4.5 4.6-.2 2.4-2 4-4.3 4.1a919 919 0 0 1-28.9 1.7c-3.8.2-2.3-2.8-2.4-4.5-.3-2.6-.5-5 3.8-5.2 5.6-.1 11.3-.9 17.3-1.4M165 284.4c-.1-2.7.9-5 3.4-5.5 2.3-.5 4 .9 4.8 3.2 1.7 4.2 3.5 8.5 5 12.8 1.3 3.8-2.3 3.4-3.9 4.6-1.5 1.1-3.5 2.9-5-.4a73 73 0 0 1-4.4-14.7M184 272.9c2.5-1.1 4.1.8 5 2.8 1.7 4 3.6 8 4.3 12.3.6 3.9-3.8 3.4-5.8 5-2 1.5-3-.3-3.5-2-1.2-4.2-2.2-8.5-3-11.5-.2-3.8.8-5.7 3-6.6z"/>
				</g>
				<g>
					<path d="M239 253.7c-3.3.3-5.3-1-5.3-4.4 0-3.2-.4-6.2 4.5-6.3 9.6-.2 19.2-1.3 28.8-1.5 4-.1 6.2-1.5 7.9-5 2.5-5 5.3-9.8 8.3-14.6 2-3.2 4.9-6 9-3.7 4.2 2.6 2.3 6.3.5 9.6l-6.7 12.4h37.7c3.3.2 6.7 1 6.7 5.1 0 4-3.1 5.2-6.6 5.2l-21 .3-9.3.1c-10.3 0-13 1.7-15.3 6.5-2.3 4.6-1 6.4 2.4 8.9 15.5 11.4 24 22.4 39.3 34.5 4.4 3.4 6.4 6.2 4.2 9.8-2.2 3.5-8.6 5.7-11 3.8-17-13.6-25.7-21.6-42.1-34.9-3.5-2.8-4.2 1.7-6.5 5.8a653.1 653.1 0 0 1-16.3 27.1c-1.4 2-4 3.8-7.3 2-3.6-1.7-4.6-5-3.3-7.7 8.4-17.8 19.4-32.7 28-49.3l2.4-4.8c-9.9.6-20.4.6-29 1.1zM254.2 233.1c-2.5-4.7-4.5-9-8.8-11.8 4-2.1 5.5-5.8 6.9-10.3 1.8 5.4 4.5 8.7 9 10.6-4.1 2.5-6.3 6.1-7.1 11.5z"/>
					<path d="M266.5 224c1.6-1.6 1.8-.1 2.8.6 4.7 3.5-.9 4.9-1 7.3-1.3-2.6-5.4-4.2-1.8-7.9z"/>
				</g>
			</g>
			<g fill="url(#d)" transform="translate(0 -10)">
				<path d="M243.3 115c-1.6-.1-8.2-1.2-7.6-5.6.7-4.3 4.2-10 8.7-9.6 10.2 1 20.4 2.2 30.6 2.2 12.3 0 14.1-6.4 15-8.3 2.4-5.3 8.2-14.3 16.5-8.7 8.4 5.7-.8 11.7-2.5 18l34.2 4.8c-.5-6.8-10.7-12-2-18.1 4.3-3 8.3 0 10.9 3.7 3.1 4.4 9.7 8.8-.4 14.8 6.9 1 12.2 1.3 17.2 2.6 4.5 1.1 9 3.5 7.5 9.6-1.3 5.4-5.8 5.4-10.2 5-20-2.3-40-4.2-59.9-6.8-6.3-.8-10.2.5-14 6.1-11.6 17.5-24.6 35.5-35.9 51.8-2.8 4.2-6.5 5.5-11.8 3.1-5.4-2.4-4.5-9-1.5-13.1l35.2-49.7-30-1.8z"/>
				<path d="M294.5 40c4.9-6 6-2 11.1-3 5.2-.9 10.3-.9 12.8 4.8 2.5 5.6-1.2 8.8-9 13.6 10.3 1.4 34 2.9 43.5 4.4a76 76 0 0 1 15.4 3.9c6.9 2.7 13 7.6 12.4 15.6-.5 9-4.4 17.4-11.1 23.6-2.7 2.4-7 2.1-9.9-.5-2.6-2.4-.7-5.2.4-7.9 6.8-16.5 5.6-18.7-12-21a475 475 0 0 0-82.4-3.1c-7.2.3-8.7 2.9-7.2 9 2.4 9.3-3.3 9-9.8 10-8.1 1.4-7.5-3.5-7.5-8.6-.1-7.5-.7-15-.2-22.6.4-7 6.4-10.5 10.9-6.1 7 6.8 14.3 4 21.6 4.3 7 .2 21.9 0 29.4-.2-9.9-5.7-11-13-8.4-16.2zM320.5 146.4c9.5-.5 18.3-1.2 27-1.3 3.8 0 8.3.7 8.8 5.8.6 5.6-3.7 7.4-8 8.2-8.3 1.4-16.7 2-25 3.4-3 .5-7.9-1.6-8.2 4.2-.2 5 2 9.2 6.7 11.2 6.2 2.8 13 2.8 19.7 2.6 3.2 0 6.3-.7 9.5-.6 2.9 0 8-3.8 7.9 2.4 0 4.5 1.9 11.2-6.8 12a101 101 0 0 1-34.6-1.6c-9.8-2.5-17.9-8.4-19.2-19-1-8.6-5.3-7.4-10.5-6.3-5.3 1.1-9.7 2.8-11.1-5.8-1.6-9.4 4.4-8.1 9.1-8.7 9.2-1.1 15.8-3.3 18.2-14.7 2.3-11 11.6-13.8 16.6-7.1 3.7 4.7 0 9.6-.1 15.3M287.6 37.9c-3 1.6-7.2-.5-9.6-4.8-2.3-4.2-1.8-9 1.1-10.6 3-1.6 7.3.5 9.6 4.7 2.4 4.3 1.9 9-1 10.7zm12.5-9.6c-3.4.5-6.6-3-7.3-7.8-.7-4.8 1.5-9 4.8-9.6 3.4-.4 6.6 3 7.3 7.9.7 4.8-1.5 9-4.8 9.5zm13.4-.4c-3-1.5-3.8-6.3-1.7-10.6 2.2-4.4 6.4-6.7 9.4-5.2 3.1 1.5 3.9 6.3 1.8 10.6-2.2 4.4-6.4 6.7-9.5 5.2zm12.4 9.5c-1.8-2.2-.8-6.1 2.4-8.8 3.2-2.6 7.2-3 9.1-.8 1.9 2.2.8 6.2-2.4 8.8-3.1 2.7-7.2 3-9 .8zM140.4 96.8c.1-7.3 1-11.5 11-10.6 9.4.9 18.8-4.5 28.8-4.7 18.2-.4 25.7 5.7 26.8 23.8 1.5 24.8-.3 49.6-.8 74.3 0 5.7-3 9-8.5 8.7-5.6-.2-6.4-4.7-6.2-9.3 1-22.6 1.9-45.2.6-67.8-.8-15.8-4.3-18.8-19.8-16.6-4.5.6-8.9 2.1-13.4 2.8-7.1 1.1-5 6.5-5.1 10.9-.2 6.3 4.5 3.7 7.6 4.2 4.1.6 8.3.9 12.4 1.6 3.3.6 6.4 1.8 6.3 6 0 4.7-3.7 5.8-7.3 6.2-4.1.5-8.4.7-12.6.2-5.5-.5-8 1.1-7 7 .6 4.5-2 10.8 6.8 9.6 4.8-.7 9.8-.7 14.6.9 3 1 5.2 2.6 5.3 5.9 0 4-2.6 5.5-6.1 6-1.4.3-2.8.3-4.2.4-16 1.1-16 1.1-15.7 17.9 0 3.5 0 7.2.3 10.7.6 5.4-2.8 5.5-6.6 5.8-4.1.3-6.5-.3-6.6-5.5-.4-12.2-.2-23.7-.8-35.9.3 0 .1-35.2.2-52.5zM129.1 133c.7 9.7.4 19.4-1.6 28.9-3.1 14.2-13 22.6-26 22.5-14-.2-22.2-7.5-25.3-22.9-3.8-19.3-2.8-38.5.5-57.7 1.4-8.1 4.9-13.7 14.3-7.4 1.5 1 4.1.3 6.2.1 22.6-2 29.3 3.4 31.4 25.8.3 3.5.4 7.1.5 10.7zm-13 .5c-.9-5.3-1.3-10.7-2.5-15.9-1.8-7.6-7.5-8.3-14.2-7.7-8.8.7-10 5.8-10.6 13.6-.6 8.5 4.1 8.3 9.5 9 4.2.7 9.4 1.1 9 7-.5 5.3-5.2 6-9.7 6.4-3 .3-6.7-1.7-9 1.6-2.3 3.7 4.1 20.2 8.4 22 6.7 2.6 13.9-1.3 16.4-9.4a83.8 83.8 0 0 0 2.6-26.6zM111 81.1c-6.1 1-11.2 2-11.7-6.7-.2-4.6-3.6-4.4-7-4-5.7.7-11.4 1.4-17 1.7-3.7.2-8.5 3-9-4.8-.4-6.9 1.3-10 8.4-9.9 4.6 0 9.2-.8 13.8-1 3.7 0 6-.8 5.5-5.4-.4-4 1.6-7 5.7-7.8 4.3-.8 8.3 1 9.6 5 2 6.2 6 5.7 10.8 5.2 8.5-.8 17-1.3 25.5-1.9 6.5-.4 10 1.3 13.2-7.5 2.3-6.2 13.4-6 15.4.9 1.6 5.2 4 4.6 7.6 4.4 6-.4 12-.8 18-1 4.5 0 9.3.5 9.9 6 .6 5.7-4.1 6.7-8.6 7.2-5.3.5-10.6.8-15.9 1.1-7.5.5-16.3-1.7-16.2 10.8 0 2.8-2.4 4-7.4 4-5.1-.4-7.5-2.5-7-6.3.9-6.6-2.6-5.9-6.9-5.6-10.2.8-20.5 1.2-31.8 1.8.3 6.4 4.2 12.4-4.8 13.8z"/>
				<g>
					<path d="M101.8 308.2c2.4 0 4.8.8 4.9 3.5.1 3.3-2.6 6.8-5.2 6.8-10.2 0-20.3 0-30.5.2-9.8.3-19.7 1-29.6 1.4-2 0-5.2-.9-5.6-5.3-.5-4.4 2.3-4.7 5.5-4.9l18.5-1c2.9 0 4.8-.8 4.5-4.2-.3-3.7-3-2.4-5-2.4-4.2 0-8.4 0-12.6.2-2.3.2-3.8-2.2-3.6-5 0-2.3.4-4 3-4.1l14.9-.5c2.1 0 3.8-.1 3.8-3 0-2.4-1-3-3-3.2-1.3-.1-2.5-.5-3.7-.8-17-3.7-23.4-17.6-15.2-33 2-3.6 4.1-6 8.8-3.5 4.1 2.2 8.8.2 13.1.3 8.2.2 16.4-.9 24.4 1.4 6.8 1.9 12.5 4.8 13.2 13 .8 9.3-2.3 15.7-10 19.6a30.2 30.2 0 0 1-14.2 3.3c-2 0-4 0-4 3 0 3.1 2.3 2.7 4.2 2.7h13.3c2.7.2 6.2-.3 6.3 3.5.1 4-3.4 5.5-6 5.6-4.7.2-9.4.2-14.1 0-2.9 0-3.9 1-3.9 3.9 0 3.3 2.2 2.6 4 2.6h11.2c4.2-.2 8.4-.2 12.6-.1zm-51.7-45.7c.6 4 14.8 4.7 15.6-.1 1.3-8.2-4.5-5.1-7.7-5.1-3.1 0-8.6 0-7.9 5.2zm.4 10.1c0 3.7 6.2 5.2 10.5 6.4 1.6.4 4.2 1.8 4.1-1.8 0-2 1.8-5.2-2.5-5.4-3.8-.2-12.1-2.9-12.1.8zm42.5-4.8c.1-6-5.2-10.2-12.8-10.6-2.7 0-4.2.5-4.2 3.5 0 2.2-.8 4.5 2.6 5 2.4.2 5.7-.1 5.6 3.3-.1 4-3.7 3.2-6.3 3.1-3.3 0-2.4 2.5-2.6 4.2-.2 1.3-.6 2.7 1.6 3.3 6.5 1.9 16-5 16.1-11.8zM2.6 302.5c14.8 3.5 17 1.6 16.7-13.6v-1.4c-.4-10.5-.5-10.6-10.7-8.3-3.3.8-5.7 1.8-6.5-3.4-.7-4.3-.4-6.5 4.2-7l2.2-.2c7-1 11.6-3.8 9-12v-2.3c-.6-10.7-.6-10.8-11.2-11-3.2 0-5.7.2-5.4-4.5.2-4 1.1-6.5 5.3-5.8 9.2 1.4 10.8-3.2 9.5-11-.6-3.7-.6-8 4.6-8.5 5.3-.3 5.5 4.2 6 7.8.8 5.4-.2 11.8 8.2 12.2 1.7.1 2.6 2.2 2.4 4.1-.2 2.6-1.6 4.1-4 4.7-2.4.5-5.5.6-4.2 4.4 1.4 4.5-2.5 10.7 3.6 13.7 5.5 2.6 5 5.9 1.1 8.9-3 2.4-3.3 5-3.3 8.4 0 8.4 1.3 16.9-.6 25.3a15.5 15.5 0 0 1-24.4 9.7c-4.1-2.7-1.9-6.6-2.5-10.2M44.4 244.6c-2.2 0-4 .3-3.6-2.6.2-2.2-1.3-5.4 2.9-5.4 1.4 0 3 .3 4.3-.2 2-.7 6.5 2.2 5.4-3-.6-2.4 1.7-8.6-5.2-6.8-2.8.8-4-.6-3.9-3.5 0-2.7.8-4.2 3.7-4.1 3 0 5.8 0 8.7-.2 3.4 0 7.3 1.7 7.4-5 0-3.6 5-3.4 6.8-1 5.4 7.2 12.7 5.7 19.8 5.8 1.7 0 3.4 0 5.1.2 2.4.2 4.4 1.1 4.2 4-.2 2.1-2 3.2-4 3.3l-4.4.1c-4.5.1-3.6 4-4.1 6.5-.8 4 2.6 2.4 4.3 2.6 2.4.3 5 0 7.3.2 2.4.3 5.2 1 5 4.2 0 3.1-2.6 3.7-5.2 3.8l-54.5 1.1zM80 226.2H66.3c-1.8.1-4.6-.6-4.5 2.2.2 2.6.2 6.2 3.6 7.4 7.3 2.5 13-1 14.6-9.6z"/>
				</g>
				<g>
					<path d="M424 234.5c2.2-.4 5.5-.3 5.3 3.1-.1 3.4-3.4 2.7-5.7 3h-4.4c-2.5-.1-3.4 1.2-3.4 3.6 0 3 2.2 1.9 3.7 2h2.2c2.5.2 6.1-.9 6.2 3 0 3.2-3.3 3-5.7 3l-2.9.3c-2.6 0-5 .3-4.7 4 .3 3.7 3 2.3 5 2.3l19.6-.9c2.8 0 5.8 0 5.8 3.8 0 3.2-3 3.4-5.4 3.6l-7.3.7c3.7 4.5 8.5 5.8 12.4 8 4.3 2.4 2.8 4.5 1.3 7.6-1.8 3.6-3.6 2.9-6.1 1-3-2.3-6-4.2-9.1-6.2-1.7-1.1-4-2.6-3.6-4.3 2.5-9.6-4.4-5.6-8-5.6-12.8.3-25.7 1.2-38.5 1.4-4 .1-6 1.5-6.4 5.3 7.7 4.6 15.7 1.8 23.6.4 6-1 12.1-1 18.2-.7 5.1.3 9.7 2.3 11.7 7.4a19.8 19.8 0 0 1-1 17c-1.4 2.5-4 3.1-6.4 2.3-3-1-2.7-3.4-2.4-6 1.7-12.2 0-14.1-12-13-4.6.4-9 1.6-13.7 2-7.8.8-13.5 3.2-11.8 13 1 5-3 3.7-5.6 4-3.4.3-4.2-1.2-4-4.3.7-6.4 1-12.7 1.7-20.8-5.3 4.8-9.8 8.4-13.6 12.5-3.2 3.4-4.8 1-7.2-.7-3.3-2.4-1.1-4 .6-5.7l11.7-11.2c-1.5-2-3.6-.7-5.3-1-2.6-.3-6 1.4-5.8-3.8 0-5.4 3.8-3.3 6.1-3.4 5.8-.4 11.7-.3 17.5-.4 2.3 0 4.4.2 4.3-3.3 0-3.2-1.9-3.5-4.3-3.3h-4.4c-2.5.2-3.4-.8-3.3-3.4 0-2.2 1-2.6 3-3 2.7-.8 8.1 2.8 7.7-2.8-.5-6-5.8-1.5-8.9-2-2.1-.5-4.3.2-4.3-3.3 0-3.2 1.8-3.1 4-3.7 3.2-.9 9.7 2.6 8.6-4-.7-4.4-6-1.4-9-1-9.8 1.2-9.8 1.4-8.4 11.7.4 3.3-.2 4.9-3.8 5.3-3 .3-5.1.8-5.5-3.3-.5-5.3-1.6-10.7-2-16-.5-4.4 1.2-6 6-5.1 11.2 1.9 22-2.6 33.2-2.6 1.8 0 1.2-1.6 1.5-2.7 1.8-5.8 4.8-7 9.3-2.6 3.5 3.5 7.1 4 11.7 4 9-.1 18-1 26.8 1.4 4.5 1.3 8.4 3.6 9 8.6.7 5.8-1.9 11-5.7 15.3-1.4 1.6-4 1.9-6.1.7-2.2-1.2-1.3-3.2-.7-5.2 3.3-10 1.8-12.4-8.6-13.2-3.4-.3-6.8 0-10.2 0-.1 5.4 1.6 8.3 7.4 7.2zm-37-5.6c1.8 7.4-.5 6 15.2 5.9 5 0 6.3-2.4 6.3-7.2l-21.5 1.3zm11.2 11.9c-2.8 2.2-9.2-2.3-8.7 4.2.5 5.5 6 2 9 2 2.8.2 8.1 1.9 7.7-3.5-.4-5.6-5.4-1-8-2.7zm-1 19.3c2.7-.3 5.5 0 7.8-1.2 1.4-.7 1.2-3.5-.2-5-.8-1-14.7-.2-14.8.8-.2 1.6-1 4 .8 4.7 2 .8 4.3.5 6.3.7z"/>
					<path d="M405.8 290.7c-.4 2.5-1.7 4.5-3.6 6.2-6.7 6.2-13.5 12.2-20 18.7-4.1 4.2-5.7-.3-8.1-2-3.8-2.5-.4-4 1-5.6 7.1-7.3 14-14.7 22.5-20.3 4.2-2.8 8-1.3 8.2 3M432.4 313.7c3.4 1.6 4.7 3.3 2.5 7-2.2 3.8-4 2.6-7 1-5.2-2.9-15.6-6.4-20.8-9.2-2.3-1.2-4-3.4-2.7-5.9 1.4-2.5 4-3.1 7-2 5.4 2.6 15.6 6.5 21 9z"/>
				</g>
				<g>
					<path d="M174.6 228c4-4.7 7.7-9.7 12.8-13.2 3.7-2.5 7.3-2.9 7.7 2.9.2 3 2 4.3 3.9 5.8 6 4.9 12.3 9.7 18.3 14.7 2.8 2.3 6.3 7.4 3.2 10-3.2 2.5-7.2.9-8.3 0-6.6-5.5-13.3-11-19.7-16.7-3-2.7-5-2.7-7.7.6-4.5 5.8-9.6 11.2-14.1 17-3.9 5-6.8 12-14.3 1.2l-2.2 50.3c-.1 3.5-.4 7-.6 10.4-.3 4-2.5 5.8-6.3 5.4-4.1-.4-4.1-3.6-4-6.6l1.2-23c-.9-.5-10.3-3-12.2 0-2.5 3.7-.5 9-.6 13.8 0 3.2 0 6.4.2 9.7.3 3.8-.3 5.7-5 5.8-4.7 0-5.4-1.8-5.5-6-.2-28.9-.8-57.7-1.2-86.6-.1-7.7 1.3-9 8.4-6.5 3 1 5.2-.2 7.7-.7 12.8-2 18.4 2.2 19.5 15.3.5 5.8.6 11 .6 19a4877 4877 0 0 1 18.2-22.6zm-34.4 19.3c.6 0 2.7.5 3.5-1.3 1.6-3.2 2-10 1.7-13.4-.3-4.2-2-7.5-7.4-6.6-4.8.7-7.8 1.5-7.6 8 .3 7.3.5 13.3 9.8 13.3zm5.4 11.4c0-3.2-3.6-2.3-4.9-2.5-10.2-2.4-10.4 4-9.6 11.3a18 18 0 0 1 0 3.7c-.1 2.5 1.1 3.5 3.3 4 3.7.8 6.3.8 11.2 0v-16.5zM162.3 309.4c0-3.5 2.4-5 5.7-5.2 7.2-.2 14.4-1.2 21.6-1.3 4.5 0 6.7-1.2 7.7-6.3 1.8-8.8 4.5-17.5 7.2-26.2 1.2-3.9 3.5-7.7 8.3-5.7 4.7 2 2.6 6 1.6 9.5-2.2 7.3-4.3 14.6-6.6 21.8-1.3 4-1.3 6.5 4 6.2 2.5-.2 5.7.2 6.7 3.2 2 5.6-1.8 7-6.1 7.2-13.2.7-26.5.8-39 2.4-4.6-.6-11 0-11-5.6z"/>
					<path d="M193.4 249.2c3.1.2 6.6 0 10 .6 2.5.4 4.7 2 4.5 4.7-.2 2.4-2 4-4.3 4.2-9.7.7-19.3 1.3-28.9 1.7-3.8.2-2.3-2.8-2.4-4.6-.3-2.6-.5-5 3.8-5.2 5.6-.2 11.3-.9 17.3-1.4M169.4 275.5c2.3-.5 4 .9 4.8 3.2 1.7 4.3 3.5 8.6 5 13 1.3 3.8-1.2 4.3-2.8 5.5-1.5 1.2-5 1.2-6-1.3-2-4.9-3.4-9.7-4.5-14.9 0-2.7 1-5 3.5-5.5zM185 269.4c2.5-1 4.1.9 5 2.9 1.7 4 3.6 8.1 4.3 12.4.6 3.9-1.6 5.7-3.5 5.7-2 0-5.3-1-5.8-2.7l-3-11.6c-.2-3.8.8-5.7 3-6.7z"/>
				</g>
				<g>
					<path d="M241 250.2c-3.3.2-5.3-1.2-5.3-4.5s-1-6.5 4-6.6c9.6-.2 20-1 29.7-1.3 4-.1 6.2-1.5 8-5 2.5-5 5.3-10 8.3-14.7 2-3.3 5-6.2 9-3.8 4.4 2.6 2.4 6.3.6 9.6-2 4-4.1 7.7-6.8 12.6h38.2c3.3.2 6.7 1 6.7 5.2 0 4-3.3 6-6.7 6.1-7 .2-14.1.2-21.2.3l-9.5.1c-10.4 0-13 .8-15.4 5.7-2.3 4.6-.7 6 2.4 8.9 15.3 13.8 28.1 23.4 43 36.7 4.2 3.7 6.5 6.3 4.3 9.9a6.3 6.3 0 0 1-9.1 1.8 1605.3 1605.3 0 0 1-43.9-36.8c-3.4-3-8.2 3.5-10.5 7.6a659.1 659.1 0 0 1-16.5 27.4c-1.3 2-4 3.8-7.4 2-3.6-1.8-4.6-5-3.3-7.8 8.5-18 19.6-33 28.4-49.7l2.3-4.9c-10 .6-20.5.6-29.3 1.2zM254.4 228.3c-2.5-4.7-4.6-9-8.9-11.9 4-2.1 5.5-5.8 7-10.4 1.8 5.4 4.5 8.8 9.1 10.7-4.2 2.5-6.4 6.2-7.2 11.6z"/>
					<path d="M266.8 219.2c1.6-1.7 1.8-.2 2.8.6 4.8 3.5-.8 4.9-1 7.3-1.3-2.6-5.4-4.2-1.8-8z"/>
				</g>
			</g>
		</g>
	</g>
</svg>
